<svg width="44" height="44" viewBox="0 0 44 44" fill="none" xmlns="http://www.w3.org/2000/svg">
<path d="M18.5625 8.9375V9.625H25.4375V8.9375C25.4375 8.02582 25.0753 7.15148 24.4307 6.50682C23.786 5.86216 22.9117 5.5 22 5.5C21.0883 5.5 20.214 5.86216 19.5693 6.50682C18.9247 7.15148 18.5625 8.02582 18.5625 8.9375ZM15.8125 9.625V8.9375C15.8125 7.29647 16.4644 5.72266 17.6248 4.56228C18.7852 3.4019 20.359 2.75 22 2.75C23.641 2.75 25.2148 3.4019 26.3752 4.56228C27.5356 5.72266 28.1875 7.29647 28.1875 8.9375V9.625H38.5C38.8647 9.625 39.2144 9.76987 39.4723 10.0277C39.7301 10.2856 39.875 10.6353 39.875 11C39.875 11.3647 39.7301 11.7144 39.4723 11.9723C39.2144 12.2301 38.8647 12.375 38.5 12.375H36.4265L33.825 35.156C33.6332 36.8338 32.8306 38.3822 31.5702 39.5061C30.3099 40.6301 28.6799 41.2508 26.9912 41.25H17.0087C15.3201 41.2508 13.6901 40.6301 12.4298 39.5061C11.1694 38.3822 10.3668 36.8338 10.175 35.156L7.5735 12.375H5.5C5.13533 12.375 4.78559 12.2301 4.52773 11.9723C4.26987 11.7144 4.125 11.3647 4.125 11C4.125 10.6353 4.26987 10.2856 4.52773 10.0277C4.78559 9.76987 5.13533 9.625 5.5 9.625H15.8125ZM12.9085 34.8425C13.0233 35.8489 13.5044 36.7778 14.26 37.4524C15.0157 38.1269 15.9931 38.4998 17.006 38.5H26.9926C28.0055 38.4998 28.983 38.1269 29.7386 37.4524C30.4943 36.7778 30.9753 35.8489 31.0901 34.8425L33.66 12.375H10.3414L12.9085 34.8425ZM17.875 17.1875C18.2397 17.1875 18.5894 17.3324 18.8473 17.5902C19.1051 17.8481 19.25 18.1978 19.25 18.5625V32.3125C19.25 32.6772 19.1051 33.0269 18.8473 33.2848C18.5894 33.5426 18.2397 33.6875 17.875 33.6875C17.5103 33.6875 17.1606 33.5426 16.9027 33.2848C16.6449 33.0269 16.5 32.6772 16.5 32.3125V18.5625C16.5 18.1978 16.6449 17.8481 16.9027 17.5902C17.1606 17.3324 17.5103 17.1875 17.875 17.1875ZM27.5 18.5625C27.5 18.1978 27.3551 17.8481 27.0973 17.5902C26.8394 17.3324 26.4897 17.1875 26.125 17.1875C25.7603 17.1875 25.4106 17.3324 25.1527 17.5902C24.8949 17.8481 24.75 18.1978 24.75 18.5625V32.3125C24.75 32.6772 24.8949 33.0269 25.1527 33.2848C25.4106 33.5426 25.7603 33.6875 26.125 33.6875C26.4897 33.6875 26.8394 33.5426 27.0973 33.2848C27.3551 33.0269 27.5 32.6772 27.5 32.3125V18.5625Z" fill="#CC1E06"/>
</svg>
