<svg width="202" height="50" viewBox="0 0 202 50" fill="none" xmlns="http://www.w3.org/2000/svg">
<g opacity="0.9">
<path opacity="0.99" d="M25.6763 8.75C23.2544 8.75 21.291 10.7133 21.291 13.1353V24.8293C21.291 27.2513 23.2544 29.2145 25.6763 29.2145C28.0983 29.2145 30.0615 27.2513 30.0615 24.8293V13.1353C30.0615 10.7133 28.0983 8.75 25.6763 8.75Z" fill="#0562EF"/>
<path d="M28.7876 32.0774L38.7653 26.035C40.9471 24.7137 43.7869 25.4113 45.1082 27.5931C46.4295 29.7749 45.7319 32.6147 43.5501 33.9359L33.5723 39.9784C31.3905 41.2996 28.5507 40.6021 27.2294 38.4203C25.9082 36.2385 26.6058 33.3987 28.7876 32.0774Z" fill="#0562EF"/>
<path d="M21.4422 31.9714L12.575 26.6015C10.3708 25.2666 7.50191 25.9714 6.1671 28.1755C4.83229 30.3797 5.53703 33.2486 7.74118 34.5834L16.6084 39.9533C18.8126 41.2881 21.6815 40.5834 23.0163 38.3792C24.3511 36.1751 23.6464 33.3062 21.4422 31.9714Z" fill="#0562EF"/>
</g>
<path opacity="0.99" d="M71.5723 23.7887C71.3257 23.7887 71.0944 23.6962 70.8786 23.5112C70.6936 23.2954 70.6011 23.0487 70.6011 22.7712C70.6011 22.0621 70.9095 21.3991 71.5261 20.7825C71.7111 20.69 72.0811 20.5359 72.6361 20.32C73.1911 20.1041 73.6844 19.9962 74.1161 19.9962C75.2877 19.9962 76.2436 20.32 76.9836 20.9675C77.7236 21.5841 78.0936 22.4784 78.0936 23.65C78.0936 23.9891 78.0319 24.7137 77.9086 25.8237C77.7852 27.1187 77.7236 28.1209 77.7236 28.83C77.7236 30.9884 78.0164 32.7304 78.6023 34.0562C78.8182 34.4879 79.1573 34.8271 79.6198 35.0737C80.0823 35.3204 80.4986 35.4437 80.8686 35.4437C81.7627 35.4437 82.4873 35.2896 83.0423 34.9812C83.5973 34.6729 84.1986 34.1796 84.8461 33.5012C85.4936 32.8229 85.9098 32.0521 86.0948 31.1887C86.3107 30.3254 86.4648 29.1384 86.5573 27.6275C86.6189 26.6409 86.6807 25.9163 86.7423 25.4538C86.8964 23.9738 86.9736 22.7096 86.9736 21.6613C86.9736 20.9829 87.1586 20.4279 87.5286 19.9962C87.8986 19.5337 88.4073 19.3025 89.0548 19.3025C89.4248 19.3025 89.8411 19.4259 90.3036 19.6725C90.7969 19.8884 91.1207 20.1504 91.2748 20.4587C91.4598 20.7671 91.5523 21.2759 91.5523 21.985C91.5523 22.355 91.5061 22.7096 91.4136 23.0487C91.1977 23.8196 91.0898 24.7446 91.0898 25.8237L91.1361 28.2287C91.1361 30.4179 91.2902 32.0366 91.5986 33.085C91.7527 33.5784 91.9686 34.0871 92.2461 34.6112C92.5236 35.1046 92.7857 35.5209 93.0323 35.86C93.6489 36.5384 94.0498 37.0162 94.2348 37.2937C94.4198 37.5404 94.5123 37.7871 94.5123 38.0337C94.5123 38.4037 94.3273 38.7584 93.9573 39.0975C93.6182 39.4059 93.2482 39.56 92.8473 39.56C91.7064 39.56 90.7198 39.1746 89.8873 38.4037C89.0548 37.6329 88.4382 36.6309 88.0373 35.3975C86.9889 36.6 86.0177 37.5712 85.1236 38.3112C84.5069 38.7429 83.7514 39.0666 82.8573 39.2825C81.9632 39.4675 81.0689 39.56 80.1748 39.56C78.9723 39.56 77.7544 39.0666 76.5211 38.08C75.2877 37.0934 74.4552 35.9525 74.0236 34.6575C73.9927 34.5959 73.9002 34.3491 73.7461 33.9175C73.6227 33.4859 73.5611 32.8384 73.5611 31.975C73.5611 30.8341 73.6227 29.4004 73.7461 27.6737C73.8386 26.5637 73.8848 25.5463 73.8848 24.6213C73.8848 24.3438 73.7769 24.1125 73.5611 23.9275C73.3761 23.7425 73.1602 23.65 72.9136 23.65C72.7286 23.65 72.5127 23.6809 72.2661 23.7425C72.0502 23.7734 71.8189 23.7887 71.5723 23.7887ZM114.434 23.9275C114.434 25.2841 113.74 25.9625 112.353 25.9625C111.89 25.9625 111.505 25.8546 111.196 25.6387C110.888 25.4229 110.549 25.0991 110.179 24.6675C109.254 23.65 108.452 23.1412 107.774 23.1412C106.88 23.1412 106.001 23.4034 105.138 23.9275C104.305 24.4516 103.627 25.1916 103.103 26.1475C102.578 27.1034 102.316 28.1671 102.316 29.3387C102.316 30.6337 102.563 31.7129 103.056 32.5763C103.58 33.4396 104.382 34.1796 105.461 34.7962C105.862 35.0121 106.325 35.1816 106.849 35.305C107.404 35.4284 107.882 35.49 108.283 35.49C109.177 35.49 110.302 35.1354 111.659 34.4262C112.152 34.1796 112.568 33.9946 112.908 33.8712C113.247 33.7479 113.601 33.6862 113.971 33.6862C114.31 33.6862 114.696 33.8404 115.128 34.1487C115.559 34.4571 115.775 34.8425 115.775 35.305C115.775 36.23 115.343 37.0162 114.48 37.6637C113.617 38.2804 112.553 38.7584 111.289 39.0975C110.055 39.4059 108.868 39.56 107.728 39.56C105.908 39.56 104.213 39.1437 102.64 38.3112C101.098 37.4787 99.8651 36.3379 98.9401 34.8887C98.0151 33.4087 97.5526 31.7437 97.5526 29.8937C97.5526 27.9204 97.9996 26.1166 98.8938 24.4825C99.7879 22.8484 100.99 21.5687 102.501 20.6437C104.012 19.7187 105.662 19.2562 107.45 19.2562C108.468 19.2562 109.516 19.4412 110.595 19.8112C111.674 20.1812 112.584 20.7209 113.324 21.43C114.064 22.1391 114.434 22.9716 114.434 23.9275ZM148.952 39.5137C146.64 39.5137 145.084 38.6196 144.281 36.8312C143.881 35.9371 143.619 34.7809 143.495 33.3625C143.372 31.9134 143.31 30.2175 143.31 28.275V26.8412C143.31 24.6212 142.57 23.5112 141.09 23.5112C140.227 23.5112 139.364 23.9584 138.5 24.8525C137.637 25.7159 136.912 26.8721 136.326 28.3212C135.771 29.7396 135.494 31.2196 135.494 32.7612C135.494 33.7787 135.54 34.7037 135.632 35.5362C135.695 36.5846 135.725 37.3862 135.725 37.9412C135.725 38.9896 135.001 39.5137 133.551 39.5137C132.842 39.5137 132.21 39.3596 131.655 39.0512C131.131 38.7429 130.869 38.3421 130.869 37.8487C130.992 36.2762 131.054 34.3337 131.054 32.0212L131.007 25.9162C131.007 24.9296 130.931 21.2759 130.776 14.955L130.637 10.7C130.637 10.0217 130.946 9.43584 131.562 8.9425C132.18 8.41834 132.874 8.15625 133.644 8.15625C134.322 8.15625 134.816 8.31041 135.124 8.61875C135.432 8.92709 135.586 9.405 135.586 10.0525C135.586 10.8542 135.571 11.7946 135.54 12.8737C135.51 13.9221 135.479 14.7237 135.447 15.2787C135.355 16.8512 135.309 18.4237 135.309 19.9962C135.309 21.5379 135.279 22.7559 135.216 23.65C136.141 22.2934 137.19 21.2912 138.361 20.6437C139.564 19.9654 140.967 19.6262 142.57 19.6262C143.742 19.6262 144.821 20.1504 145.807 21.1987C146.825 22.2162 147.442 23.3879 147.657 24.7137C147.72 25.3921 147.75 26.3941 147.75 27.72L147.704 31.0962C147.704 31.6204 147.735 32.4375 147.796 33.5475C147.827 34.0716 147.997 34.6266 148.305 35.2125C148.645 35.7984 149.03 36.23 149.461 36.5075C149.862 36.7541 150.125 37.0009 150.247 37.2475C150.371 37.4941 150.432 37.7716 150.432 38.08C150.432 38.3884 150.294 38.7121 150.016 39.0512C149.739 39.3596 149.385 39.5137 148.952 39.5137ZM155.694 19.3025C157.729 19.3025 158.746 20.6437 158.746 23.3262C158.746 23.6654 158.715 24.4209 158.654 25.5925C158.592 26.9491 158.561 28.0129 158.561 28.7837C158.561 30.9421 158.854 32.6841 159.44 34.01C159.656 34.4416 160.041 34.7809 160.596 35.0275C161.182 35.2741 161.675 35.3975 162.076 35.3975C162.692 35.3975 163.201 35.3204 163.602 35.1662C164.004 35.0121 164.374 34.7809 164.712 34.4725C165.082 34.1641 165.437 33.825 165.776 33.455C166.362 32.8075 166.732 32.0675 166.886 31.235C167.071 30.3716 167.179 29.2309 167.21 27.8125C167.21 26.9184 167.256 26.055 167.349 25.2225C167.534 23.8659 167.626 22.6016 167.626 21.43C167.626 20.7825 167.796 20.2429 168.135 19.8112C168.505 19.3487 169.029 19.1175 169.707 19.1175C170.046 19.1175 170.447 19.2409 170.91 19.4875C171.404 19.7034 171.727 19.95 171.881 20.2275C172.097 20.5975 172.205 21.1062 172.205 21.7537C172.205 22.1546 172.159 22.5246 172.066 22.8637C171.912 23.3262 171.835 23.9121 171.835 24.6213C171.835 24.9913 171.866 25.6079 171.927 26.4712C172.02 27.1187 172.066 27.7816 172.066 28.46C172.066 30.5259 172.22 32.0521 172.529 33.0387C172.867 34.0871 173.33 35.0121 173.916 35.8137C174.532 36.4612 174.949 36.9391 175.165 37.2475C175.381 37.525 175.489 37.7716 175.489 37.9875C175.489 38.3575 175.304 38.7121 174.934 39.0512C174.564 39.3904 174.179 39.56 173.777 39.56C172.636 39.56 171.635 39.1746 170.771 38.4037C169.939 37.6021 169.322 36.5846 168.921 35.3512C168.582 35.7521 168.135 36.2454 167.58 36.8312C167.025 37.4171 166.501 37.895 166.007 38.265C164.805 39.1284 163.264 39.56 161.382 39.56C160.611 39.56 159.764 39.3287 158.839 38.8662C157.945 38.4037 157.127 37.8025 156.387 37.0625C155.647 36.2916 155.139 35.4746 154.861 34.6112C154.83 34.5496 154.737 34.3029 154.584 33.8712C154.46 33.4396 154.399 32.7921 154.399 31.9287L154.352 24.5287C154.352 24.0971 154.245 23.4188 154.029 22.4938C153.844 21.8771 153.751 21.4146 153.751 21.1062C153.751 20.5821 153.921 20.1504 154.26 19.8112C154.63 19.4721 155.107 19.3025 155.694 19.3025ZM179.877 23.465C179.877 20.69 179.831 18.4854 179.739 16.8512C179.677 15.9262 179.616 15.2325 179.554 14.77C179.4 12.365 179.322 10.8696 179.322 10.2838C179.322 8.86541 180.032 8.15625 181.45 8.15625C182.345 8.15625 182.946 8.3875 183.254 8.85C183.594 9.3125 183.825 10.0679 183.947 11.1162C184.256 13.2437 184.41 15.7412 184.41 18.6087C184.41 19.9037 184.364 21.1988 184.271 22.4938C184.826 21.6304 185.705 20.9212 186.907 20.3662C188.141 19.8112 189.266 19.5337 190.284 19.5337C191.671 19.5337 192.827 19.8266 193.752 20.4125C194.709 20.9675 195.649 21.7846 196.574 22.8637C197.099 23.6346 197.561 24.5596 197.961 25.6387C198.393 26.6871 198.608 27.5966 198.608 28.3675C198.608 29.6934 198.393 31.0963 197.961 32.5763C197.561 34.0254 197.021 35.1509 196.342 35.9525C195.48 37.0009 194.492 37.7871 193.382 38.3112C192.303 38.8354 191.009 39.0975 189.497 39.0975C187.155 39.0975 185.305 38.1416 183.947 36.23C183.794 37.0009 183.455 37.7716 182.93 38.5425C182.406 39.2825 181.805 39.6525 181.126 39.6525C180.571 39.6525 180.109 39.5137 179.739 39.2362C179.369 38.9279 179.184 38.4809 179.184 37.895C179.184 37.6791 179.246 37.1396 179.368 36.2762C179.677 34.4262 179.831 32.6841 179.831 31.05L179.877 23.465ZM188.757 35.2587C189.467 35.2587 190.098 35.1662 190.653 34.9812C191.208 34.7654 191.826 34.4262 192.504 33.9637C193.029 33.6554 193.413 33.0696 193.66 32.2062C193.937 31.3429 194.076 30.3871 194.076 29.3387C194.076 27.7354 193.63 26.3016 192.735 25.0375C192.396 24.6675 191.949 24.3591 191.394 24.1125C190.839 23.8659 190.284 23.7425 189.729 23.7425C188.404 23.7425 187.247 24.1125 186.26 24.8525C185.305 25.5925 184.765 26.6254 184.641 27.9512C184.641 28.3521 184.626 28.6759 184.595 28.9225L184.502 32.5763C184.872 33.2854 185.474 33.9175 186.306 34.4725C187.138 34.9966 187.956 35.2587 188.757 35.2587Z" fill="#0562EF"/>
</svg>
